<svg xmlns="http://www.w3.org/2000/svg" viewBox="0 0 340 189" width="340" height="189">
  <defs>
    <linearGradient id="bgBack" x1="0" y1="0" x2="340" y2="189" gradientUnits="userSpaceOnUse">
      <stop offset="0%" stop-color="#0F1F0F"/>
      <stop offset="50%" stop-color="#1A2E1A"/>
      <stop offset="100%" stop-color="#0F1F0F"/>
    </linearGradient>
    <radialGradient id="glowCenter" cx="50%" cy="50%" r="70%">
      <stop offset="0%" stop-color="#C5A572" stop-opacity="0.02"/>
      <stop offset="100%" stop-color="#C5A572" stop-opacity="0"/>
    </radialGradient>
    <linearGradient id="linhaBottomV" x1="60" y1="0" x2="280" y2="0" gradientUnits="userSpaceOnUse">
      <stop offset="0%" stop-color="#C5A572" stop-opacity="0"/>
      <stop offset="50%" stop-color="#C5A572" stop-opacity="0.15"/>
      <stop offset="100%" stop-color="#C5A572" stop-opacity="0"/>
    </linearGradient>
    <clipPath id="cardClipV">
      <rect width="340" height="189" rx="8"/>
    </clipPath>
  </defs>

  <g clip-path="url(#cardClipV)">
    <!-- Fundo -->
    <rect width="340" height="189" fill="url(#bgBack)"/>
    <rect width="340" height="189" fill="url(#glowCenter)"/>

    <!-- Container do QR code -->
    <!-- Fundo branco com borda ouro -->
    <rect x="125" y="20" width="90" height="90" rx="6" fill="rgba(245,240,232,0.95)" stroke="#C5A572" stroke-opacity="0.4" stroke-width="1.5"/>

    <!-- QR Code real apontando para https://agruai.com -->
    <g transform="translate(134, 29) scale(2.48)">
      <path d="M0,0H1V1H0zM1,0H2V1H1zM2,0H3V1H2zM3,0H4V1H3zM4,0H5V1H4zM5,0H6V1H5zM6,0H7V1H6zM9,0H10V1H9zM11,0H12V1H11zM12,0H13V1H12zM14,0H15V1H14zM18,0H19V1H18zM20,0H21V1H20zM22,0H23V1H22zM23,0H24V1H23zM24,0H25V1H24zM25,0H26V1H25zM26,0H27V1H26zM27,0H28V1H27zM28,0H29V1H28zM0,1H1V2H0zM6,1H7V2H6zM9,1H10V2H9zM11,1H12V2H11zM14,1H15V2H14zM15,1H16V2H15zM16,1H17V2H16zM19,1H20V2H19zM20,1H21V2H20zM22,1H23V2H22zM28,1H29V2H28zM0,2H1V3H0zM2,2H3V3H2zM3,2H4V3H3zM4,2H5V3H4zM6,2H7V3H6zM9,2H10V3H9zM10,2H11V3H10zM11,2H12V3H11zM12,2H13V3H12zM15,2H16V3H15zM16,2H17V3H16zM20,2H21V3H20zM22,2H23V3H22zM24,2H25V3H24zM25,2H26V3H25zM26,2H27V3H26zM28,2H29V3H28zM0,3H1V4H0zM2,3H3V4H2zM3,3H4V4H3zM4,3H5V4H4zM6,3H7V4H6zM10,3H11V4H10zM14,3H15V4H14zM16,3H17V4H16zM17,3H18V4H17zM19,3H20V4H19zM20,3H21V4H20zM22,3H23V4H22zM24,3H25V4H24zM25,3H26V4H25zM26,3H27V4H26zM28,3H29V4H28zM0,4H1V5H0zM2,4H3V5H2zM3,4H4V5H3zM4,4H5V5H4zM6,4H7V5H6zM8,4H9V5H8zM9,4H10V5H9zM10,4H11V5H10zM12,4H13V5H12zM16,4H17V5H16zM17,4H18V5H17zM18,4H19V5H18zM19,4H20V5H19zM22,4H23V5H22zM24,4H25V5H24zM25,4H26V5H25zM26,4H27V5H26zM28,4H29V5H28zM0,5H1V6H0zM6,5H7V6H6zM10,5H11V6H10zM11,5H12V6H11zM15,5H16V6H15zM16,5H17V6H16zM19,5H20V6H19zM20,5H21V6H20zM22,5H23V6H22zM28,5H29V6H28zM0,6H1V7H0zM1,6H2V7H1zM2,6H3V7H2zM3,6H4V7H3zM4,6H5V7H4zM5,6H6V7H5zM6,6H7V7H6zM8,6H9V7H8zM10,6H11V7H10zM12,6H13V7H12zM14,6H15V7H14zM16,6H17V7H16zM18,6H19V7H18zM20,6H21V7H20zM22,6H23V7H22zM23,6H24V7H23zM24,6H25V7H24zM25,6H26V7H25zM26,6H27V7H26zM27,6H28V7H27zM28,6H29V7H28zM8,7H9V8H8zM12,7H13V8H12zM13,7H14V8H13zM15,7H16V8H15zM16,7H17V8H16zM17,7H18V8H17zM18,7H19V8H18zM19,7H20V8H19zM2,8H3V9H2zM3,8H4V9H3zM6,8H7V9H6zM7,8H8V9H7zM8,8H9V9H8zM10,8H11V9H10zM12,8H13V9H12zM14,8H15V9H14zM15,8H16V9H15zM16,8H17V9H16zM19,8H20V9H19zM20,8H21V9H20zM21,8H22V9H21zM22,8H23V9H22zM24,8H25V9H24zM0,9H1V10H0zM1,9H2V10H1zM2,9H3V10H2zM3,9H4V10H3zM4,9H5V10H4zM5,9H6V10H5zM10,9H11V10H10zM11,9H12V10H11zM13,9H14V10H13zM14,9H15V10H14zM21,9H22V10H21zM24,9H25V10H24zM26,9H27V10H26zM28,9H29V10H28zM0,10H1V11H0zM3,10H4V11H3zM4,10H5V11H4zM5,10H6V11H5zM6,10H7V11H6zM7,10H8V11H7zM9,10H10V11H9zM12,10H13V11H12zM13,10H14V11H13zM15,10H16V11H15zM18,10H19V11H18zM22,10H23V11H22zM25,10H26V11H25zM26,10H27V11H26zM27,10H28V11H27zM0,11H1V12H0zM1,11H2V12H1zM2,11H3V12H2zM3,11H4V12H3zM10,11H11V12H10zM11,11H12V12H11zM12,11H13V12H12zM13,11H14V12H13zM15,11H16V12H15zM17,11H18V12H17zM19,11H20V12H19zM23,11H24V12H23zM24,11H25V12H24zM25,11H26V12H25zM28,11H29V12H28zM1,12H2V13H1zM3,12H4V13H3zM4,12H5V13H4zM6,12H7V13H6zM8,12H9V13H8zM13,12H14V13H13zM14,12H15V13H14zM21,12H22V13H21zM23,12H24V13H23zM26,12H27V13H26zM27,12H28V13H27zM28,12H29V13H28zM3,13H4V14H3zM4,13H5V14H4zM5,13H6V14H5zM9,13H10V14H9zM10,13H11V14H10zM12,13H13V14H12zM14,13H15V14H14zM15,13H16V14H15zM16,13H17V14H16zM18,13H19V14H18zM19,13H20V14H19zM22,13H23V14H22zM23,13H24V14H23zM25,13H26V14H25zM26,13H27V14H26zM28,13H29V14H28zM1,14H2V15H1zM2,14H3V15H2zM3,14H4V15H3zM4,14H5V15H4zM5,14H6V15H5zM6,14H7V15H6zM8,14H9V15H8zM12,14H13V15H12zM13,14H14V15H13zM14,14H15V15H14zM16,14H17V15H16zM19,14H20V15H19zM20,14H21V15H20zM21,14H22V15H21zM23,14H24V15H23zM24,14H25V15H24zM25,14H26V15H25zM27,14H28V15H27zM28,14H29V15H28zM0,15H1V16H0zM4,15H5V16H4zM5,15H6V16H5zM8,15H9V16H8zM9,15H10V16H9zM11,15H12V16H11zM12,15H13V16H12zM14,15H15V16H14zM15,15H16V16H15zM16,15H17V16H16zM21,15H22V16H21zM22,15H23V16H22zM24,15H25V16H24zM25,15H26V16H25zM0,16H1V17H0zM1,16H2V17H1zM5,16H6V17H5zM6,16H7V17H6zM7,16H8V17H7zM9,16H10V17H9zM11,16H12V17H11zM13,16H14V17H13zM16,16H17V17H16zM17,16H18V17H17zM18,16H19V17H18zM20,16H21V17H20zM21,16H22V17H21zM22,16H23V17H22zM23,16H24V17H23zM24,16H25V17H24zM25,16H26V17H25zM1,17H2V18H1zM2,17H3V18H2zM3,17H4V18H3zM5,17H6V18H5zM9,17H10V18H9zM13,17H14V18H13zM14,17H15V18H14zM15,17H16V18H15zM16,17H17V18H16zM17,17H18V18H17zM19,17H20V18H19zM20,17H21V18H20zM22,17H23V18H22zM23,17H24V18H23zM26,17H27V18H26zM0,18H1V19H0zM2,18H3V19H2zM6,18H7V19H6zM8,18H9V19H8zM9,18H10V19H9zM11,18H12V19H11zM12,18H13V19H12zM13,18H14V19H13zM15,18H16V19H15zM19,18H20V19H19zM22,18H23V19H22zM23,18H24V19H23zM26,18H27V19H26zM2,19H3V20H2zM3,19H4V20H3zM5,19H6V20H5zM10,19H11V20H10zM11,19H12V20H11zM12,19H13V20H12zM17,19H18V20H17zM18,19H19V20H18zM19,19H20V20H19zM21,19H22V20H21zM22,19H23V20H22zM24,19H25V20H24zM25,19H26V20H25zM26,19H27V20H26zM28,19H29V20H28zM1,20H2V21H1zM3,20H4V21H3zM4,20H5V21H4zM6,20H7V21H6zM9,20H10V21H9zM10,20H11V21H10zM11,20H12V21H11zM12,20H13V21H12zM14,20H15V21H14zM16,20H17V21H16zM18,20H19V21H18zM20,20H21V21H20zM21,20H22V21H21zM22,20H23V21H22zM23,20H24V21H23zM24,20H25V21H24zM25,20H26V21H25zM26,20H27V21H26zM28,20H29V21H28zM8,21H9V22H8zM13,21H14V22H13zM14,21H15V22H14zM15,21H16V22H15zM17,21H18V22H17zM18,21H19V22H18zM20,21H21V22H20zM24,21H25V22H24zM25,21H26V22H25zM27,21H28V22H27zM28,21H29V22H28zM0,22H1V23H0zM1,22H2V23H1zM2,22H3V23H2zM3,22H4V23H3zM4,22H5V23H4zM5,22H6V23H5zM6,22H7V23H6zM8,22H9V23H8zM9,22H10V23H9zM11,22H12V23H11zM12,22H13V23H12zM15,22H16V23H15zM16,22H17V23H16zM18,22H19V23H18zM19,22H20V23H19zM20,22H21V23H20zM22,22H23V23H22zM24,22H25V23H24zM26,22H27V23H26zM27,22H28V23H27zM0,23H1V24H0zM6,23H7V24H6zM11,23H12V24H11zM12,23H13V24H12zM13,23H14V24H13zM17,23H18V24H17zM20,23H21V24H20zM24,23H25V24H24zM27,23H28V24H27zM28,23H29V24H28zM0,24H1V25H0zM2,24H3V25H2zM3,24H4V25H3zM4,24H5V25H4zM6,24H7V25H6zM9,24H10V25H9zM14,24H15V25H14zM17,24H18V25H17zM20,24H21V25H20zM21,24H22V25H21zM22,24H23V25H22zM23,24H24V25H23zM24,24H25V25H24zM25,24H26V25H25zM26,24H27V25H26zM0,25H1V26H0zM2,25H3V26H2zM3,25H4V26H3zM4,25H5V26H4zM6,25H7V26H6zM8,25H9V26H8zM9,25H10V26H9zM13,25H14V26H13zM17,25H18V26H17zM19,25H20V26H19zM24,25H25V26H24zM26,25H27V26H26zM27,25H28V26H27zM0,26H1V27H0zM2,26H3V27H2zM3,26H4V27H3zM4,26H5V27H4zM6,26H7V27H6zM8,26H9V27H8zM9,26H10V27H9zM12,26H13V27H12zM15,26H16V27H15zM18,26H19V27H18zM20,26H21V27H20zM23,26H24V27H23zM26,26H27V27H26zM28,26H29V27H28zM0,27H1V28H0zM6,27H7V28H6zM10,27H11V28H10zM12,27H13V28H12zM13,27H14V28H13zM16,27H17V28H16zM18,27H19V28H18zM19,27H20V28H19zM21,27H22V28H21zM24,27H25V28H24zM25,27H26V28H25zM27,27H28V28H27zM0,28H1V29H0zM1,28H2V29H1zM2,28H3V29H2zM3,28H4V29H3zM4,28H5V29H4zM5,28H6V29H5zM6,28H7V29H6zM10,28H11V29H10zM11,28H12V29H11zM12,28H13V29H12zM18,28H19V29H18zM20,28H21V29H20zM21,28H22V29H21zM23,28H24V29H23zM27,28H28V29H27z" fill="#0F1F0F" fill-rule="nonzero"/>
    </g>

    <!-- CTA -->
    <text x="170" y="132" text-anchor="middle" font-family="'Space Grotesk', sans-serif" font-size="11" font-weight="600" fill="#C5A572" letter-spacing="1.5">
      GARANTA SUA VAGA
    </text>

    <!-- URL -->
    <text x="170" y="150" text-anchor="middle" font-family="'Inter', sans-serif" font-size="12" font-weight="500" fill="#F5F0E8" letter-spacing="0.5">
      agruai.com
    </text>

    <!-- Linha decorativa inferior -->
    <rect x="60" y="173" width="220" height="1" fill="url(#linhaBottomV)"/>
  </g>
</svg>